<?xml version="1.0" encoding="iso-8859-1"?>
<!-- Generator: Adobe Illustrator 19.0.0, SVG Export Plug-In . SVG Version: 6.00 Build 0)  -->
<svg version="1.1" id="Layer_1" xmlns="http://www.w3.org/2000/svg" xmlns:xlink="http://www.w3.org/1999/xlink" x="0px" y="0px"
	 viewBox="0 0 512.001 512.001" style="enable-background:new 0 0 512.001 512.001;" xml:space="preserve">
<path style="fill:#FF1E1E;" d="M357.267,62.861H68.228c-8.803,0-15.94,7.137-15.94,15.94v349.447c0,8.803,7.137,15.94,15.94,15.94
	h289.039c8.803,0,15.94-7.137,15.94-15.94V78.8C373.206,69.997,366.07,62.861,357.267,62.861z"/>
<path style="fill:#FF7F55;" d="M212.746,62.861H68.227c-8.803,0-15.94,7.137-15.94,15.94v349.447c0,8.803,7.137,15.94,15.94,15.94
	h144.52V62.861z"/>
<path style="fill:#CCCCCC;" d="M290.32,205.274h-94.927c-8.803,0-15.94-7.137-15.94-15.94c0-8.803,7.137-15.94,15.94-15.94h94.927
	c8.803,0,15.94,7.137,15.94,15.94C306.26,198.137,299.123,205.274,290.32,205.274z"/>
<path style="fill:#FFFFFF;" d="M212.747,205.274h-17.355c-8.803,0-15.94-7.137-15.94-15.94c0-8.803,7.137-15.94,15.94-15.94h17.355
	V205.274z"/>
<path style="fill:#CCCCCC;" d="M290.32,257.344h-94.927c-8.803,0-15.94-7.137-15.94-15.94c0-8.803,7.137-15.94,15.94-15.94h94.927
	c8.803,0,15.94,7.137,15.94,15.94C306.26,250.207,299.123,257.344,290.32,257.344z"/>
<path style="fill:#FFFFFF;" d="M212.747,257.344h-17.355c-8.803,0-15.94-7.137-15.94-15.94c0-8.803,7.137-15.94,15.94-15.94h17.355
	V257.344z"/>
<path style="fill:#CCCCCC;" d="M290.32,309.413h-94.927c-8.803,0-15.94-7.137-15.94-15.94c0-8.803,7.137-15.94,15.94-15.94h94.927
	c8.803,0,15.94,7.137,15.94,15.94C306.26,302.277,299.123,309.413,290.32,309.413z"/>
<path style="fill:#FFFFFF;" d="M212.747,309.413h-17.355c-8.803,0-15.94-7.137-15.94-15.94c0-8.803,7.137-15.94,15.94-15.94h17.355
	V309.413z"/>
<path style="fill:#CCCCCC;" d="M290.32,361.483h-94.927c-8.803,0-15.94-7.137-15.94-15.94s7.137-15.94,15.94-15.94h94.927
	c8.803,0,15.94,7.137,15.94,15.94S299.123,361.483,290.32,361.483z"/>
<g>
	<path style="fill:#FFFFFF;" d="M212.747,361.483h-17.355c-8.803,0-15.94-7.137-15.94-15.94s7.137-15.94,15.94-15.94h17.355V361.483
		z"/>
	<path style="fill:#FFFFFF;" d="M149.431,205.274h-17.444c-8.803,0-15.94-7.137-15.94-15.94c0-8.803,7.137-15.94,15.94-15.94h17.444
		c8.803,0,15.94,7.137,15.94,15.94C165.37,198.137,158.234,205.274,149.431,205.274z"/>
	<path style="fill:#FFFFFF;" d="M149.431,257.344h-17.444c-8.803,0-15.94-7.137-15.94-15.94c0-8.803,7.137-15.94,15.94-15.94h17.444
		c8.803,0,15.94,7.137,15.94,15.94C165.37,250.207,158.234,257.344,149.431,257.344z"/>
	<path style="fill:#FFFFFF;" d="M149.431,309.413h-17.444c-8.803,0-15.94-7.137-15.94-15.94c0-8.803,7.137-15.94,15.94-15.94h17.444
		c8.803,0,15.94,7.137,15.94,15.94C165.37,302.277,158.234,309.413,149.431,309.413z"/>
	<path style="fill:#FFFFFF;" d="M149.431,361.483h-17.444c-8.803,0-15.94-7.137-15.94-15.94s7.137-15.94,15.94-15.94h17.444
		c8.803,0,15.94,7.137,15.94,15.94S158.234,361.483,149.431,361.483z"/>
</g>
<path style="fill:#1E2E57;" d="M261.561,77.737h-97.627c-8.803,0-15.94-7.137-15.94-15.94C147.994,27.722,175.715,0,209.79,0h2.956
	h2.956c34.075,0,61.797,27.722,61.797,61.797C277.5,70.6,270.364,77.737,261.561,77.737z M184.481,45.857h56.529
	c-5.304-8.393-14.666-13.978-25.308-13.978h-2.955h-2.957C199.149,31.879,189.787,37.465,184.481,45.857z"/>
<path style="fill:#40467C;" d="M209.79,31.879h2.956V0h-2.956c-34.074,0-61.796,27.722-61.796,61.797
	c0,8.803,7.137,15.94,15.94,15.94h48.814V45.857h-28.265C189.787,37.465,199.149,31.879,209.79,31.879z"/>
<path style="fill:#3F54C0;" d="M287.664,41.021H137.831c-8.803,0-15.94,7.137-15.94,15.94v46.823c0,8.803,7.137,15.94,15.94,15.94
	h149.833c8.803,0,15.94-7.137,15.94-15.94V56.961C303.603,48.158,296.467,41.021,287.664,41.021z"/>
<path style="fill:#5F7BF0;" d="M212.747,41.021h-74.916c-8.803,0-15.94,7.137-15.94,15.94v46.823c0,8.803,7.137,15.94,15.94,15.94
	h74.916V41.021z"/>
<path style="fill:#3BC0DA;" d="M362.58,317.733c-53.559,0-97.133,43.574-97.133,97.134s43.574,97.134,97.133,97.134
	s97.134-43.574,97.134-97.134S416.139,317.733,362.58,317.733z"/>
<path style="fill:#98DAE5;" d="M362.58,317.733c-53.559,0-97.133,43.574-97.133,97.134s43.574,97.134,97.133,97.134V317.733z"/>
<path style="fill:#ECECEC;" d="M362.58,342.942c-39.66,0-71.925,32.265-71.925,71.925s32.265,71.925,71.925,71.925
	s71.925-32.265,71.925-71.925S402.239,342.942,362.58,342.942z"/>
<path style="fill:#FFFFFF;" d="M362.58,342.942c-39.66,0-71.925,32.265-71.925,71.925s32.265,71.925,71.925,71.925V342.942z"/>
<path style="fill:#1E2E57;" d="M357.267,444.187c-3.695,0-7.389-1.278-10.374-3.837l-15.497-13.283
	c-6.684-5.729-7.459-15.792-1.729-22.476c5.731-6.684,15.791-7.458,22.475-1.728l5.093,4.365l20.439-17.62
	c6.667-5.747,16.732-5.002,22.48,1.665s5.002,16.732-1.665,22.48l-30.817,26.566C364.684,442.898,360.975,444.187,357.267,444.187z"
	/>
<path style="fill:#40467C;" d="M357.267,444.187c-3.695,0-7.389-1.278-10.374-3.837l-15.497-13.283
	c-6.684-5.729-7.459-15.792-1.729-22.476c5.731-6.684,15.791-7.458,22.475-1.728l5.093,4.365l5.343-4.607l0.231,40.573
	C361.025,443.856,359.146,444.187,357.267,444.187z"/>
<g>
</g>
<g>
</g>
<g>
</g>
<g>
</g>
<g>
</g>
<g>
</g>
<g>
</g>
<g>
</g>
<g>
</g>
<g>
</g>
<g>
</g>
<g>
</g>
<g>
</g>
<g>
</g>
<g>
</g>
</svg>
